<mxfile host="65bd71144e">
    <diagram id="6eL5WpkBChc2anXy6LX4" name="Page-1">
        <mxGraphModel dx="1267" dy="633" grid="1" gridSize="10" guides="1" tooltips="1" connect="1" arrows="1" fold="1" page="1" pageScale="1" pageWidth="827" pageHeight="1169" math="0" shadow="0">
            <root>
                <mxCell id="0"/>
                <mxCell id="1" parent="0"/>
                <mxCell id="28" value="" style="group" vertex="1" connectable="0" parent="1">
                    <mxGeometry x="246" y="188.87" width="260" height="590" as="geometry"/>
                </mxCell>
                <mxCell id="29" value="" style="rounded=0;whiteSpace=wrap;html=1;fillColor=none;" vertex="1" parent="28">
                    <mxGeometry x="-26" y="-18.86525" width="286" height="608.8652500000001" as="geometry"/>
                </mxCell>
                <mxCell id="30" value="Service (singleton): Game Repo" style="text;html=1;strokeColor=none;fillColor=none;align=left;verticalAlign=middle;whiteSpace=wrap;rounded=0;" vertex="1" parent="28">
                    <mxGeometry x="-26" y="-18.866279069767444" width="260" height="34.76785714285715" as="geometry"/>
                </mxCell>
                <mxCell id="5" value="" style="group" vertex="1" connectable="0" parent="1">
                    <mxGeometry x="286" y="208.87" width="200" height="430" as="geometry"/>
                </mxCell>
                <mxCell id="3" value="" style="rounded=0;whiteSpace=wrap;html=1;fillColor=none;" vertex="1" parent="5">
                    <mxGeometry width="200" height="430" as="geometry"/>
                </mxCell>
                <mxCell id="4" value="Service: Game" style="text;html=1;strokeColor=none;fillColor=none;align=left;verticalAlign=middle;whiteSpace=wrap;rounded=0;" vertex="1" parent="5">
                    <mxGeometry width="200" height="36.85714285714286" as="geometry"/>
                </mxCell>
                <mxCell id="9" value="" style="group" vertex="1" connectable="0" parent="5">
                    <mxGeometry x="46.153846153846146" y="40" width="146.15384615384613" height="120" as="geometry"/>
                </mxCell>
                <mxCell id="10" value="" style="rounded=0;whiteSpace=wrap;html=1;fillColor=none;" vertex="1" parent="9">
                    <mxGeometry width="146.15384615384613" height="120" as="geometry"/>
                </mxCell>
                <mxCell id="11" value="Service: Board" style="text;html=1;strokeColor=none;fillColor=none;align=left;verticalAlign=middle;whiteSpace=wrap;rounded=0;" vertex="1" parent="9">
                    <mxGeometry width="146.15384615384613" height="10.285714285714286" as="geometry"/>
                </mxCell>
                <mxCell id="21" value="" style="group" vertex="1" connectable="0" parent="9">
                    <mxGeometry x="38.84615384615387" y="30" width="96.15" height="80" as="geometry"/>
                </mxCell>
                <mxCell id="22" value="" style="rounded=0;whiteSpace=wrap;html=1;fillColor=none;" vertex="1" parent="21">
                    <mxGeometry width="96.15" height="80" as="geometry"/>
                </mxCell>
                <mxCell id="23" value="State:&lt;br&gt;&lt;span&gt;&amp;nbsp; * board&lt;/span&gt;" style="text;html=1;strokeColor=none;fillColor=none;align=left;verticalAlign=middle;whiteSpace=wrap;rounded=0;" vertex="1" parent="21">
                    <mxGeometry width="96.14746973684213" height="80" as="geometry"/>
                </mxCell>
                <mxCell id="25" value="API" style="shape=process;whiteSpace=wrap;html=1;backgroundOutline=1;fillColor=none;" vertex="1" parent="9">
                    <mxGeometry x="-16.153846153846132" y="35" width="30" height="50" as="geometry"/>
                </mxCell>
                <mxCell id="12" value="" style="group" vertex="1" connectable="0" parent="5">
                    <mxGeometry x="46.153846153846146" y="170" width="146.15384615384613" height="120" as="geometry"/>
                </mxCell>
                <mxCell id="13" value="" style="rounded=0;whiteSpace=wrap;html=1;fillColor=none;" vertex="1" parent="12">
                    <mxGeometry width="146.15384615384613" height="120" as="geometry"/>
                </mxCell>
                <mxCell id="14" value="Service: Board" style="text;html=1;strokeColor=none;fillColor=none;align=left;verticalAlign=middle;whiteSpace=wrap;rounded=0;" vertex="1" parent="12">
                    <mxGeometry width="146.15384615384613" height="10.285714285714286" as="geometry"/>
                </mxCell>
                <mxCell id="18" value="" style="group" vertex="1" connectable="0" parent="12">
                    <mxGeometry x="38.84615384615387" y="30" width="96.15" height="80" as="geometry"/>
                </mxCell>
                <mxCell id="19" value="" style="rounded=0;whiteSpace=wrap;html=1;fillColor=none;" vertex="1" parent="18">
                    <mxGeometry width="96.15" height="80" as="geometry"/>
                </mxCell>
                <mxCell id="20" value="State:&lt;br&gt;&lt;span&gt;&amp;nbsp; * board&lt;/span&gt;" style="text;html=1;strokeColor=none;fillColor=none;align=left;verticalAlign=middle;whiteSpace=wrap;rounded=0;" vertex="1" parent="18">
                    <mxGeometry width="96.14746973684213" height="80" as="geometry"/>
                </mxCell>
                <mxCell id="26" value="API" style="shape=process;whiteSpace=wrap;html=1;backgroundOutline=1;fillColor=none;" vertex="1" parent="12">
                    <mxGeometry x="-16.153846153846132" y="35" width="30" height="50" as="geometry"/>
                </mxCell>
                <mxCell id="15" value="" style="group" vertex="1" connectable="0" parent="5">
                    <mxGeometry x="46.153846153846146" y="300" width="146.15384615384613" height="120" as="geometry"/>
                </mxCell>
                <mxCell id="16" value="" style="rounded=0;whiteSpace=wrap;html=1;fillColor=none;" vertex="1" parent="15">
                    <mxGeometry width="146.15384615384613" height="120" as="geometry"/>
                </mxCell>
                <mxCell id="17" value="State:&lt;br&gt;&lt;span&gt;&amp;nbsp; * player_1_id&lt;br&gt;&lt;/span&gt;&amp;nbsp; * player_2_id&lt;br&gt;&amp;nbsp; * board_1_pid&lt;br&gt;&amp;nbsp; * board_2_pid" style="text;html=1;strokeColor=none;fillColor=none;align=left;verticalAlign=middle;whiteSpace=wrap;rounded=0;" vertex="1" parent="15">
                    <mxGeometry width="146.15" height="120" as="geometry"/>
                </mxCell>
                <mxCell id="48" value="" style="group" vertex="1" connectable="0" parent="1">
                    <mxGeometry x="296" y="648.87" width="189" height="40" as="geometry"/>
                </mxCell>
                <mxCell id="49" value="" style="rounded=0;whiteSpace=wrap;html=1;fillColor=none;" vertex="1" parent="48">
                    <mxGeometry x="-10" y="-1.86" width="199" height="41.86" as="geometry"/>
                </mxCell>
                <mxCell id="50" value="Service: Game" style="text;html=1;strokeColor=none;fillColor=none;align=left;verticalAlign=middle;whiteSpace=wrap;rounded=0;" vertex="1" parent="48">
                    <mxGeometry y="-1.86" width="189" height="21.86" as="geometry"/>
                </mxCell>
                <mxCell id="51" value="" style="group" vertex="1" connectable="0" parent="1">
                    <mxGeometry x="296" y="713.87" width="189" height="40" as="geometry"/>
                </mxCell>
                <mxCell id="52" value="&lt;font style=&quot;font-size: 9px&quot;&gt;State:&lt;br&gt;&amp;nbsp; * games: Map[{player_id, player_id}, game_pid]&lt;/font&gt;" style="rounded=0;whiteSpace=wrap;html=1;fillColor=none;align=left;" vertex="1" parent="51">
                    <mxGeometry x="-10" y="-1.86" width="199" height="41.86" as="geometry"/>
                </mxCell>
                <mxCell id="54" value="API" style="shape=process;whiteSpace=wrap;html=1;backgroundOutline=1;fillColor=none;" vertex="1" parent="1">
                    <mxGeometry x="200" y="293.87" width="30" height="76.13" as="geometry"/>
                </mxCell>
            </root>
        </mxGraphModel>
    </diagram>
</mxfile>